<svg width="64" height="46" viewBox="0 0 64 46" fill="none" xmlns="http://www.w3.org/2000/svg">
<g opacity="0.24">
<path d="M15 0.717773C6.72725 0.717773 0 7.4469 0 15.7178C0 23.269 5.60675 29.5349 12.8796 30.5676C12.2974 34.7974 10.6824 38.822 8.15913 42.312C7.66838 42.9931 7.68675 43.916 8.21037 44.5751C8.72412 45.2238 9.61688 45.4696 10.4004 45.1391C22.3059 40.1698 30 28.6194 30 15.7178C30 7.4469 23.2728 0.717773 15 0.717773ZM49 0.717773C40.7272 0.717773 34 7.4469 34 15.7178C34 23.269 39.6068 29.5349 46.8796 30.5676C46.2974 34.7974 44.6824 38.822 42.1591 42.312C41.6684 42.9931 41.6868 43.916 42.2104 44.5751C42.7241 45.2238 43.6169 45.4696 44.4004 45.1391C56.3059 40.1698 64 28.6194 64 15.7178C64 7.4469 57.2728 0.717773 49 0.717773Z" fill="#F41E1E"/>
</g>
</svg>
