<svg width="204" height="56" viewBox="0 0 204 56" fill="none" xmlns="http://www.w3.org/2000/svg">
<path fill-rule="evenodd" clip-rule="evenodd" d="M36.7322 56C38.2584 36.6552 65.2332 32.1855 52.679 21.8567C51.2583 20.8136 50.2215 19.4497 50.2016 17.4737C50.5877 18.3633 51.121 19.1801 51.7796 19.8945C51.9965 19.0876 52.094 18.257 52.0701 17.4284C53.3417 16.8478 53.2342 15.1985 53.5188 14.3562C53.9546 13.0788 53.9347 12.2207 53.4611 11.7838C54.1197 6.8477 53.6441 4.09821 52.0303 3.53926C50.2633 1.37628 47.5332 0.209171 44.7295 0.417794C42.3834 0.592958 40.2304 1.71676 38.7599 3.48809C36.9809 5.63139 37.9022 9.30984 38.1649 11.8606C37.6774 12.4038 38.2942 13.7618 38.4196 14.7557C38.6245 16.3814 38.9927 17.3674 39.8145 17.5918C39.8921 18.5463 40.0513 19.493 40.2881 20.422C40.9845 19.7095 41.5934 18.9183 42.1029 18.0622C41.7865 20.2684 40.7895 21.3057 40.1627 21.7308C40.5667 22.0752 41.4024 22.3586 42.1407 22.6912C40.6005 22.6125 39.5936 21.6639 38.5549 22.1756C37.7928 22.5515 36.7401 23.3073 36.9869 23.9016C37.0685 24.9113 37.1262 26.3894 36.6884 27.7671C36.7043 26.8775 36.6108 25.4958 36.3302 24.5314C35.196 25.3069 33.3036 26.1315 31.9286 26.3244C32.4758 26.0902 33.5563 25.4328 33.9702 25.0077C31.8331 23.1557 28.7806 22.644 26.1639 23.386C28.317 22.4728 30.8163 22.5613 33.1802 23.6103C30.4501 21.6796 26.8365 21.593 22.3394 23.3466C22.3394 23.3466 23.4856 24.5531 24.0527 25.4289C17.9676 21.4316 16.0952 23.9056 11.0727 23.7953C11.1842 23.4214 11.2717 23.0475 11.3433 22.6696C11.4647 21.8548 11.4966 20.9179 11.616 19.8453C11.7493 16.4247 11.5642 12.8348 14.9749 9.04021C13.9361 10.5793 13.2715 12.3349 13.0327 14.1711C14.0277 11.5083 15.6594 9.50469 17.9278 8.15652C19.08 8.4419 19.9575 8.41041 20.5624 8.05811C22.3692 8.60722 23.7602 8.50881 24.7312 7.76289C25.768 7.37713 26.1799 6.87132 25.963 6.24742C25.5988 4.37572 25.0715 2.94488 24.381 1.95885C23.4696 0.270183 22.3394 -0.326163 20.9903 0.16784C15.8325 2.28162 16.5847 1.91948 13.3511 5.75145C7.71182 12.4274 2.57992 15.6925 0.100538 27.5112C-0.886441 34.2186 5.55678 30.2745 12.2567 32.6166C10.3285 31.4396 8.17347 30.674 5.9269 30.3709C14.3978 30.2981 16.7478 35.4743 24.0228 34.2993C23.203 33.2345 22.1543 32.3627 20.9525 31.7466C27.2345 33.5534 27.1887 38.0486 30.6909 40.1959L33.1205 37.6255C31.8629 39.9341 30.8322 41.8392 30.8819 42.9434C33.1643 44.3506 35.1602 45.7106 35.7591 50.2176C35.1462 48.7907 33.7076 46.5687 32.4281 45.6732C35.3492 50.81 34.4916 52.8904 36.7282 55.9725L36.7322 56Z" fill="#1D2229"/>
<path fill-rule="evenodd" clip-rule="evenodd" d="M34.1792 53.7543C24.4626 51.6327 16.905 43.8251 15.2574 34.0375C15.14 33.9864 15.0226 33.9352 14.9052 33.882C14.7381 33.8073 14.5689 33.7325 14.4018 33.6577C15.9459 44.1636 24.0746 52.5597 34.5155 54.6164C34.3941 54.335 34.2826 54.0496 34.1792 53.7543ZM36.4516 6.44619C27.4016 7.57984 19.9217 13.6929 16.907 21.9217C16.9687 21.9177 17.0304 21.9138 17.0941 21.9099C18.485 21.8311 19.7565 22.0398 20.9624 22.4491C23.6288 16.0665 29.5686 11.3606 36.7123 10.3766C36.5451 9.09137 36.376 7.73926 36.4516 6.44619ZM20.26 35.6081C22.0389 41.609 26.6097 46.4289 32.4878 48.5998C32.9355 49.6508 33.2877 50.7155 33.624 51.922C33.7434 52.353 33.8588 52.7585 33.9802 53.1462C24.7531 50.999 17.5776 43.5909 15.8683 34.2993C17.3886 34.9389 18.7775 35.4054 20.26 35.6081ZM16.3001 21.9807C16.0076 22.0142 15.7171 22.0555 15.4286 22.1008C18.491 12.9863 26.6952 6.19427 36.6386 5.09015C36.579 5.35191 36.5352 5.61958 36.5013 5.88921C27.0992 7.01892 19.3367 13.4016 16.3001 21.9807Z" fill="#F41E1E"/>
<path d="M73.4548 42.4C71.7215 42.4 70.0815 42.2667 68.5348 42C66.9882 41.7067 65.6682 41.3067 64.5748 40.8V34.6C65.7748 35.16 67.1082 35.6133 68.5748 35.96C70.0415 36.3067 71.4148 36.48 72.6948 36.48C74.0282 36.48 75.0282 36.3733 75.6948 36.16C76.3882 35.92 76.7348 35.4 76.7348 34.6C76.7348 34.04 76.5348 33.6 76.1348 33.28C75.7615 32.96 75.1615 32.6667 74.3348 32.4C73.5348 32.1333 72.4815 31.8 71.1748 31.4C69.4415 30.84 68.0682 30.2267 67.0548 29.56C66.0415 28.8933 65.3082 28.08 64.8548 27.12C64.4282 26.16 64.2148 24.9867 64.2148 23.6C64.2148 21.0667 65.1082 19.1467 66.8948 17.84C68.7082 16.5067 71.3882 15.84 74.9348 15.84C76.3482 15.84 77.8015 15.96 79.2948 16.2C80.8148 16.44 82.0415 16.7067 82.9748 17V23.24C81.7215 22.7333 80.5215 22.3733 79.3748 22.16C78.2282 21.9467 77.1482 21.84 76.1348 21.84C74.9615 21.84 73.9615 21.9333 73.1348 22.12C72.3082 22.3067 71.8948 22.7867 71.8948 23.56C71.8948 24.2267 72.2415 24.72 72.9348 25.04C73.6548 25.3333 74.9215 25.72 76.7348 26.2C78.8415 26.76 80.4415 27.44 81.5348 28.24C82.6548 29.04 83.4148 29.9733 83.8148 31.04C84.2148 32.08 84.4148 33.2667 84.4148 34.6C84.4148 36.9467 83.5082 38.84 81.6948 40.28C79.8815 41.6933 77.1348 42.4 73.4548 42.4ZM87.7023 42V15.04H95.2223V24.2C95.889 23.7467 96.7157 23.3733 97.7023 23.08C98.7157 22.7867 99.7957 22.64 100.942 22.64C103.556 22.64 105.462 23.2533 106.662 24.48C107.862 25.68 108.462 27.5467 108.462 30.08V42H100.902V30.64C100.902 29.76 100.716 29.1333 100.342 28.76C99.9957 28.3867 99.3557 28.2 98.4223 28.2C97.8623 28.2 97.2757 28.3333 96.6623 28.6C96.0757 28.8667 95.5957 29.1867 95.2223 29.56V42H87.7023ZM122.389 42.4C118.602 42.4 115.802 41.56 113.989 39.88C112.202 38.2 111.309 35.7467 111.309 32.52C111.309 29.32 112.215 26.88 114.029 25.2C115.842 23.4933 118.629 22.64 122.389 22.64C126.175 22.64 128.975 23.4933 130.789 25.2C132.629 26.88 133.549 29.32 133.549 32.52C133.549 35.7467 132.642 38.2 130.829 39.88C129.015 41.56 126.202 42.4 122.389 42.4ZM122.389 36.92C123.615 36.92 124.495 36.5733 125.029 35.88C125.589 35.1867 125.869 34.0667 125.869 32.52C125.869 31 125.589 29.8933 125.029 29.2C124.495 28.48 123.615 28.12 122.389 28.12C121.189 28.12 120.322 28.48 119.789 29.2C119.255 29.8933 118.989 31 118.989 32.52C118.989 34.0667 119.255 35.1867 119.789 35.88C120.322 36.5733 121.189 36.92 122.389 36.92ZM144.986 42.4C142.453 42.4 140.613 41.76 139.466 40.48C138.32 39.2 137.746 37.4667 137.746 35.28V28.6H135.266V23.04H137.746V19.16L145.266 17.36V23.04H149.626L149.346 28.6H145.266V34.72C145.266 35.52 145.466 36.0933 145.866 36.44C146.266 36.76 146.88 36.92 147.706 36.92C148.48 36.92 149.266 36.7867 150.066 36.52V41.52C148.653 42.1067 146.96 42.4 144.986 42.4ZM152.562 42V16.24H171.922V21.84H160.082V26.28H170.402V31.96H160.082V42H152.562ZM175.163 20.52V15.08H183.283V20.52H175.163ZM175.763 42V28.52H173.003L173.643 23.04H183.283V42H175.763ZM195.51 42.4C192.977 42.4 191.137 41.76 189.99 40.48C188.843 39.2 188.27 37.4667 188.27 35.28V28.6H185.79V23.04H188.27V19.16L195.79 17.36V23.04H200.15L199.87 28.6H195.79V34.72C195.79 35.52 195.99 36.0933 196.39 36.44C196.79 36.76 197.403 36.92 198.23 36.92C199.003 36.92 199.79 36.7867 200.59 36.52V41.52C199.177 42.1067 197.483 42.4 195.51 42.4Z" fill="#1D2229"/>
</svg>
