<svg width="233" height="64" viewBox="0 0 233 64" fill="none" xmlns="http://www.w3.org/2000/svg">
<path fill-rule="evenodd" clip-rule="evenodd" d="M41.9796 64C43.7239 41.8916 74.5522 36.7835 60.2046 24.9791C58.5809 23.787 57.396 22.2282 57.3733 19.9699C57.8145 20.9866 58.424 21.9201 59.1767 22.7366C59.4246 21.8144 59.536 20.8651 59.5087 19.9182C60.9619 19.2546 60.8391 17.3697 61.1643 16.407C61.6623 14.9472 61.6396 13.9665 61.0984 13.4672C61.8511 7.82595 61.3076 4.68367 59.4632 4.04487C57.4438 1.57289 54.3237 0.239052 51.1194 0.477478C48.4382 0.677666 45.9776 1.96202 44.297 3.98639C42.2639 6.43588 43.3168 10.6398 43.617 13.5549C43.0598 14.1757 43.7648 15.7277 43.9081 16.8636C44.1423 18.7216 44.563 19.8485 45.5023 20.1049C45.591 21.1958 45.7729 22.2777 46.0435 23.3394C46.8395 22.5251 47.5354 21.6209 48.1175 20.6425C47.756 23.1639 46.6166 24.3493 45.9002 24.8352C46.3619 25.2288 47.317 25.5527 48.1607 25.9328C46.4006 25.8429 45.2498 24.7587 44.0627 25.3435C43.1917 25.7731 41.9887 26.6369 42.2707 27.3161C42.364 28.47 42.4299 30.1593 41.9296 31.7338C41.9478 30.7171 41.8409 29.1381 41.5202 28.0359C40.224 28.9221 38.0613 29.8646 36.4898 30.085C37.1152 29.8174 38.3501 29.0661 38.8231 28.5803C36.3807 26.4637 32.8921 25.8788 29.9016 26.7268C32.3623 25.6831 35.2186 25.7844 37.9203 26.9832C34.8002 24.7767 30.6703 24.6777 25.5307 26.6818C25.5307 26.6818 26.8406 28.0607 27.4888 29.0616C20.5344 24.4933 18.3945 27.3206 12.6545 27.1947C12.7819 26.7673 12.8819 26.3399 12.9638 25.9081C13.1025 24.9769 13.1389 23.9062 13.2754 22.6803C13.4277 18.771 13.2162 14.6683 17.1141 10.3317C15.927 12.0906 15.1675 14.097 14.8946 16.1956C16.0316 13.1523 17.8964 10.8625 20.489 9.32173C21.8057 9.64788 22.8086 9.61189 23.4999 9.20927C25.5649 9.83682 27.1545 9.72436 28.2643 8.87187C29.4491 8.43101 29.9198 7.85294 29.672 7.13991C29.2558 5.00082 28.6531 3.36558 27.864 2.23868C26.8225 0.308781 25.5307 -0.372758 23.9889 0.191817C18.0943 2.60757 18.9539 2.1937 15.2584 6.57309C8.8135 14.2027 2.94848 17.9343 0.1149 31.4414C-1.01308 39.107 6.3506 34.5994 14.0076 37.2761C11.804 35.931 9.3411 35.056 6.7736 34.7096C16.4546 34.6264 19.1404 40.542 27.4547 39.1992C26.5177 37.9823 25.3192 36.9859 23.9457 36.2819C31.1251 38.3467 31.0728 43.4841 35.0753 45.9381L37.8521 43.0005C36.4148 45.639 35.2368 47.8163 35.2936 49.0781C37.9021 50.6864 40.1831 52.2407 40.8676 57.3916C40.1671 55.7608 38.5229 53.2214 37.0606 52.1979C40.3991 58.0686 39.4189 60.4461 41.9751 63.9685L41.9796 64Z" fill="white"/>
<path fill-rule="evenodd" clip-rule="evenodd" d="M39.0619 61.4335C27.9573 59.0088 19.3201 50.0858 17.4371 38.9C17.3029 38.8416 17.1687 38.7831 17.0345 38.7223C16.8435 38.6369 16.6502 38.5514 16.4592 38.4659C18.2239 50.4727 27.5138 60.0682 39.4462 62.4187C39.3075 62.0971 39.1802 61.7709 39.0619 61.4335ZM41.659 7.36708C31.3162 8.66268 22.7677 15.649 19.3223 25.0533C19.3928 25.0488 19.4633 25.0443 19.5361 25.0398C21.1257 24.9499 22.5789 25.1883 23.957 25.6562C27.0044 18.3617 33.7927 12.9836 41.9569 11.8589C41.7659 10.3901 41.5726 8.84487 41.659 7.36708ZM23.1543 40.695C25.1873 47.5531 30.4111 53.0616 37.1289 55.5426C37.6406 56.7437 38.0431 57.9606 38.4274 59.3394C38.5639 59.832 38.6958 60.2954 38.8345 60.7385C28.2893 58.2845 20.0887 49.8181 18.1352 39.1992C19.8727 39.9302 21.46 40.4633 23.1543 40.695ZM18.6287 25.1208C18.2944 25.1591 17.9624 25.2063 17.6326 25.258C21.1325 14.8415 30.5088 7.07917 41.8727 5.81731C41.8045 6.11647 41.7545 6.42237 41.7158 6.73053C30.9705 8.02162 22.0991 15.3161 18.6287 25.1208Z" fill="#F41E1E"/>
<path d="M84.1973 48.4667C82.1751 48.4667 80.2618 48.3111 78.4573 48C76.6529 47.6578 75.1129 47.1911 73.8373 46.6V39.3667C75.2373 40.02 76.7929 40.5489 78.504 40.9533C80.2151 41.3578 81.8173 41.56 83.3106 41.56C84.8662 41.56 86.0329 41.4356 86.8106 41.1867C87.6195 40.9067 88.024 40.3 88.024 39.3667C88.024 38.7133 87.7906 38.2 87.324 37.8267C86.8884 37.4533 86.1884 37.1111 85.224 36.8C84.2906 36.4889 83.0618 36.1 81.5373 35.6333C79.5151 34.98 77.9129 34.2644 76.7306 33.4867C75.5484 32.7089 74.6929 31.76 74.164 30.64C73.6662 29.52 73.4173 28.1511 73.4173 26.5333C73.4173 23.5778 74.4595 21.3378 76.544 19.8133C78.6595 18.2578 81.7862 17.48 85.924 17.48C87.5729 17.48 89.2684 17.62 91.0106 17.9C92.784 18.18 94.2151 18.4911 95.304 18.8333V26.1133C93.8418 25.5222 92.4418 25.1022 91.104 24.8533C89.7662 24.6044 88.5062 24.48 87.324 24.48C85.9551 24.48 84.7884 24.5889 83.824 24.8067C82.8595 25.0244 82.3773 25.5844 82.3773 26.4867C82.3773 27.2644 82.7818 27.84 83.5906 28.2133C84.4306 28.5556 85.9084 29.0067 88.024 29.5667C90.4818 30.22 92.3484 31.0133 93.624 31.9467C94.9306 32.88 95.8173 33.9689 96.284 35.2133C96.7506 36.4267 96.984 37.8111 96.984 39.3667C96.984 42.1044 95.9262 44.3133 93.8106 45.9933C91.6951 47.6422 88.4906 48.4667 84.1973 48.4667ZM100.819 48V16.5467H109.593V27.2333C110.371 26.7044 111.335 26.2689 112.486 25.9267C113.668 25.5844 114.928 25.4133 116.266 25.4133C119.315 25.4133 121.539 26.1289 122.939 27.56C124.339 28.96 125.039 31.1378 125.039 34.0933V48H116.219V34.7467C116.219 33.72 116.002 32.9889 115.566 32.5533C115.162 32.1178 114.415 31.9 113.326 31.9C112.673 31.9 111.988 32.0556 111.273 32.3667C110.588 32.6778 110.028 33.0511 109.593 33.4867V48H100.819ZM141.287 48.4667C136.869 48.4667 133.602 47.4867 131.487 45.5267C129.402 43.5667 128.36 40.7044 128.36 36.94C128.36 33.2067 129.418 30.36 131.533 28.4C133.649 26.4089 136.9 25.4133 141.287 25.4133C145.704 25.4133 148.971 26.4089 151.087 28.4C153.233 30.36 154.307 33.2067 154.307 36.94C154.307 40.7044 153.249 43.5667 151.133 45.5267C149.018 47.4867 145.736 48.4667 141.287 48.4667ZM141.287 42.0733C142.718 42.0733 143.744 41.6689 144.367 40.86C145.02 40.0511 145.347 38.7444 145.347 36.94C145.347 35.1667 145.02 33.8756 144.367 33.0667C143.744 32.2267 142.718 31.8067 141.287 31.8067C139.887 31.8067 138.876 32.2267 138.253 33.0667C137.631 33.8756 137.32 35.1667 137.32 36.94C137.32 38.7444 137.631 40.0511 138.253 40.86C138.876 41.6689 139.887 42.0733 141.287 42.0733ZM167.651 48.4667C164.695 48.4667 162.549 47.72 161.211 46.2267C159.873 44.7333 159.204 42.7111 159.204 40.16V32.3667H156.311V25.88H159.204V21.3533L167.977 19.2533V25.88H173.064L172.737 32.3667H167.977V39.5067C167.977 40.44 168.211 41.1089 168.677 41.5133C169.144 41.8867 169.86 42.0733 170.824 42.0733C171.726 42.0733 172.644 41.9178 173.577 41.6067V47.44C171.929 48.1244 169.953 48.4667 167.651 48.4667ZM176.489 48V17.9467H199.075V24.48H185.262V29.66H197.302V36.2867H185.262V48H176.489ZM202.857 22.94V16.5933H212.33V22.94H202.857ZM203.557 48V32.2733H200.337L201.083 25.88H212.33V48H203.557ZM226.595 48.4667C223.639 48.4667 221.493 47.72 220.155 46.2267C218.817 44.7333 218.148 42.7111 218.148 40.16V32.3667H215.255V25.88H218.148V21.3533L226.922 19.2533V25.88H232.008L231.682 32.3667H226.922V39.5067C226.922 40.44 227.155 41.1089 227.622 41.5133C228.088 41.8867 228.804 42.0733 229.768 42.0733C230.67 42.0733 231.588 41.9178 232.522 41.6067V47.44C230.873 48.1244 228.897 48.4667 226.595 48.4667Z" fill="white"/>
</svg>
