<svg width="175" height="48" viewBox="0 0 175 48" fill="none" xmlns="http://www.w3.org/2000/svg">
<path fill-rule="evenodd" clip-rule="evenodd" d="M31.4847 48C32.7929 31.4187 55.9141 27.5876 45.1535 18.7343C43.9357 17.8402 43.047 16.6712 43.03 14.9774C43.3609 15.74 43.818 16.4401 44.3825 17.0524C44.5684 16.3608 44.652 15.6489 44.6315 14.9386C45.7214 14.441 45.6293 13.0273 45.8732 12.3053C46.2468 11.2104 46.2297 10.4749 45.8238 10.1004C46.3883 5.86946 45.9807 3.51275 44.5974 3.03365C43.0829 1.17967 40.7428 0.179289 38.3396 0.358109C36.3286 0.50825 34.4832 1.47151 33.2227 2.98979C31.6979 4.82691 32.4876 7.97987 32.7128 10.1662C32.2949 10.6318 32.8236 11.7958 32.9311 12.6477C33.1068 14.0412 33.4223 14.8863 34.1267 15.0787C34.1932 15.8968 34.3297 16.7083 34.5326 17.5045C35.1296 16.8939 35.6515 16.2157 36.0882 15.4819C35.817 17.373 34.9625 18.262 34.4252 18.6264C34.7714 18.9216 35.4878 19.1645 36.1206 19.4496C34.8004 19.3821 33.9374 18.569 33.0471 19.0076C32.3938 19.3298 31.4915 19.9776 31.703 20.4871C31.773 21.3525 31.8224 22.6194 31.4472 23.8003C31.4608 23.0378 31.3807 21.8536 31.1402 21.0269C30.168 21.6916 28.546 22.3985 27.3674 22.5638C27.8364 22.363 28.7626 21.7996 29.1173 21.4352C27.2855 19.8477 24.6691 19.4091 22.4262 20.0451C24.2717 19.2624 26.4139 19.3383 28.4402 20.2374C26.1001 18.5825 23.0027 18.5083 19.1481 20.0114C19.1481 20.0114 20.1305 21.0455 20.6166 21.7962C15.4008 18.37 13.7959 20.4905 9.4909 20.396C9.58641 20.0755 9.66146 19.755 9.72286 19.4311C9.8269 18.7327 9.85419 17.9297 9.95653 17.0103C10.0708 14.0783 9.91219 11.0012 12.8356 7.74875C11.9453 9.06797 11.3756 10.5727 11.1709 12.1467C12.0237 9.86422 13.4223 8.14688 15.3667 6.9913C16.3543 7.23591 17.1064 7.20892 17.6249 6.90695C19.1736 7.37762 20.3659 7.29327 21.1982 6.6539C22.0868 6.32326 22.4399 5.8897 22.254 5.35493C21.9418 3.75062 21.4899 2.52419 20.898 1.67901C20.1168 0.231586 19.1481 -0.279568 17.9917 0.143863C13.5707 1.95568 14.2154 1.64527 11.4438 4.92981C6.61013 10.652 2.21136 13.4507 0.0861751 23.581C-0.759807 29.3302 4.76295 25.9495 10.5057 27.957C8.853 26.9482 7.00583 26.292 5.0802 26.0322C12.341 25.9698 14.3553 30.4065 20.591 29.3994C19.8883 28.4867 18.9894 27.7394 17.9592 27.2114C23.3439 28.76 23.3046 32.6131 26.3065 34.4536L28.389 32.2504C27.3111 34.2292 26.4276 35.8622 26.4702 36.8086C28.4266 38.0148 30.1373 39.1805 30.6507 43.0437C30.1254 41.8206 28.8922 39.916 27.7955 39.1484C30.2993 43.5514 29.5642 45.3346 31.4813 47.9764L31.4847 48Z" fill="white"/>
<path fill-rule="evenodd" clip-rule="evenodd" d="M29.2964 46.0752C20.9679 44.2566 14.49 37.5644 13.0778 29.175C12.9772 29.1312 12.8765 29.0873 12.7759 29.0418C12.6326 28.9777 12.4877 28.9135 12.3444 28.8494C13.6679 37.8545 20.6353 45.0512 29.5847 46.8141C29.4806 46.5728 29.3851 46.3282 29.2964 46.0752ZM31.2442 5.52531C23.4871 6.49701 17.0757 11.7368 14.4917 18.79C14.5446 18.7866 14.5975 18.7833 14.6521 18.7799C15.8443 18.7124 16.9342 18.8912 17.9678 19.2421C20.2533 13.7713 25.3445 9.73769 31.4677 8.8942C31.3244 7.7926 31.1794 6.63365 31.2442 5.52531ZM17.3657 30.5212C18.8905 35.6648 22.8083 39.7962 27.8467 41.657C28.2304 42.5578 28.5323 43.4705 28.8206 44.5046C28.9229 44.874 29.0218 45.2215 29.1259 45.5539C21.217 43.7134 15.0665 37.3636 13.6014 29.3994C14.9045 29.9477 16.095 30.3475 17.3657 30.5212ZM13.9715 18.8406C13.7208 18.8693 13.4718 18.9047 13.2245 18.9435C15.8494 11.1311 22.8816 5.30938 31.4046 4.36298C31.3534 4.58735 31.3159 4.81678 31.2869 5.04789C23.2279 6.01622 16.5743 11.4871 13.9715 18.8406Z" fill="#F41E1E"/>
<path d="M63.273 36.35C61.7563 36.35 60.3213 36.2333 58.968 36C57.6146 35.7433 56.4596 35.3933 55.503 34.95V29.525C56.553 30.015 57.7196 30.4117 59.003 30.715C60.2863 31.0183 61.488 31.17 62.608 31.17C63.7746 31.17 64.6496 31.0767 65.233 30.89C65.8396 30.68 66.143 30.225 66.143 29.525C66.143 29.035 65.968 28.65 65.618 28.37C65.2913 28.09 64.7663 27.8333 64.043 27.6C63.343 27.3667 62.4213 27.075 61.278 26.725C59.7613 26.235 58.5596 25.6983 57.673 25.115C56.7863 24.5317 56.1446 23.82 55.748 22.98C55.3746 22.14 55.188 21.1133 55.188 19.9C55.188 17.6833 55.9696 16.0033 57.533 14.86C59.1196 13.6933 61.4646 13.11 64.568 13.11C65.8046 13.11 67.0763 13.215 68.383 13.425C69.713 13.635 70.7863 13.8683 71.603 14.125V19.585C70.5063 19.1417 69.4563 18.8267 68.453 18.64C67.4496 18.4533 66.5046 18.36 65.618 18.36C64.5913 18.36 63.7163 18.4417 62.993 18.605C62.2696 18.7683 61.908 19.1883 61.908 19.865C61.908 20.4483 62.2113 20.88 62.818 21.16C63.448 21.4167 64.5563 21.755 66.143 22.175C67.9863 22.665 69.3863 23.26 70.343 23.96C71.323 24.66 71.988 25.4767 72.338 26.41C72.688 27.32 72.863 28.3583 72.863 29.525C72.863 31.5783 72.0697 33.235 70.483 34.495C68.8963 35.7317 66.493 36.35 63.273 36.35ZM75.7395 36V12.41H82.3195V20.425C82.9029 20.0283 83.6262 19.7017 84.4895 19.445C85.3762 19.1883 86.3212 19.06 87.3245 19.06C89.6112 19.06 91.2795 19.5967 92.3295 20.67C93.3795 21.72 93.9045 23.3533 93.9045 25.57V36H87.2895V26.06C87.2895 25.29 87.1262 24.7417 86.7995 24.415C86.4962 24.0883 85.9362 23.925 85.1195 23.925C84.6295 23.925 84.1162 24.0417 83.5795 24.275C83.0662 24.5083 82.6462 24.7883 82.3195 25.115V36H75.7395ZM106.09 36.35C102.777 36.35 100.327 35.615 98.74 34.145C97.1767 32.675 96.395 30.5283 96.395 27.705C96.395 24.905 97.1883 22.77 98.775 21.3C100.362 19.8067 102.8 19.06 106.09 19.06C109.403 19.06 111.853 19.8067 113.44 21.3C115.05 22.77 115.855 24.905 115.855 27.705C115.855 30.5283 115.062 32.675 113.475 34.145C111.888 35.615 109.427 36.35 106.09 36.35ZM106.09 31.555C107.163 31.555 107.933 31.2517 108.4 30.645C108.89 30.0383 109.135 29.0583 109.135 27.705C109.135 26.375 108.89 25.4067 108.4 24.8C107.933 24.17 107.163 23.855 106.09 23.855C105.04 23.855 104.282 24.17 103.815 24.8C103.348 25.4067 103.115 26.375 103.115 27.705C103.115 29.0583 103.348 30.0383 103.815 30.645C104.282 31.2517 105.04 31.555 106.09 31.555ZM125.863 36.35C123.646 36.35 122.036 35.79 121.033 34.67C120.03 33.55 119.528 32.0333 119.528 30.12V24.275H117.358V19.41H119.528V16.015L126.108 14.44V19.41H129.923L129.678 24.275H126.108V29.63C126.108 30.33 126.283 30.8317 126.633 31.135C126.983 31.415 127.52 31.555 128.243 31.555C128.92 31.555 129.608 31.4383 130.308 31.205V35.58C129.071 36.0933 127.59 36.35 125.863 36.35Z" fill="white"/>
<path d="M132.492 36V13.46H149.432V18.36H139.072V22.245H148.102V27.215H139.072V36H132.492ZM152.268 17.205V12.445H159.373V17.205H152.268ZM152.793 36V24.205H150.378L150.938 19.41H159.373V36H152.793ZM170.071 36.35C167.854 36.35 166.244 35.79 165.241 34.67C164.238 33.55 163.736 32.0333 163.736 30.12V24.275H161.566V19.41H163.736V16.015L170.316 14.44V19.41H174.131L173.886 24.275H170.316V29.63C170.316 30.33 170.491 30.8317 170.841 31.135C171.191 31.415 171.728 31.555 172.451 31.555C173.128 31.555 173.816 31.4383 174.516 31.205V35.58C173.279 36.0933 171.798 36.35 170.071 36.35Z" fill="#F41E1E"/>
</svg>
