<svg width="204" height="56" viewBox="0 0 204 56" fill="none" xmlns="http://www.w3.org/2000/svg">
<path fill-rule="evenodd" clip-rule="evenodd" d="M36.7322 56C38.2584 36.6552 65.2332 32.1855 52.679 21.8567C51.2583 20.8136 50.2215 19.4497 50.2016 17.4737C50.5877 18.3633 51.121 19.1801 51.7796 19.8945C51.9965 19.0876 52.094 18.257 52.0701 17.4284C53.3417 16.8478 53.2342 15.1985 53.5188 14.3562C53.9546 13.0788 53.9347 12.2207 53.4611 11.7838C54.1197 6.8477 53.6441 4.09821 52.0303 3.53926C50.2633 1.37628 47.5332 0.209171 44.7295 0.417794C42.3834 0.592958 40.2304 1.71676 38.7599 3.48809C36.9809 5.63139 37.9022 9.30984 38.1649 11.8606C37.6774 12.4038 38.2942 13.7618 38.4196 14.7557C38.6245 16.3814 38.9927 17.3674 39.8145 17.5918C39.8921 18.5463 40.0513 19.493 40.2881 20.422C40.9845 19.7095 41.5934 18.9183 42.1029 18.0622C41.7865 20.2684 40.7895 21.3057 40.1627 21.7308C40.5667 22.0752 41.4024 22.3586 42.1407 22.6912C40.6005 22.6125 39.5936 21.6639 38.5549 22.1756C37.7928 22.5515 36.7401 23.3073 36.9869 23.9016C37.0685 24.9113 37.1262 26.3894 36.6884 27.7671C36.7043 26.8775 36.6108 25.4958 36.3302 24.5314C35.196 25.3069 33.3036 26.1315 31.9286 26.3244C32.4758 26.0902 33.5563 25.4328 33.9702 25.0077C31.8331 23.1557 28.7806 22.644 26.1639 23.386C28.317 22.4728 30.8163 22.5613 33.1802 23.6103C30.4501 21.6796 26.8365 21.593 22.3394 23.3466C22.3394 23.3466 23.4856 24.5531 24.0527 25.4289C17.9676 21.4316 16.0952 23.9056 11.0727 23.7953C11.1842 23.4214 11.2717 23.0475 11.3433 22.6696C11.4647 21.8548 11.4966 20.9179 11.616 19.8453C11.7493 16.4247 11.5642 12.8348 14.9749 9.04021C13.9361 10.5793 13.2715 12.3349 13.0327 14.1711C14.0277 11.5083 15.6594 9.50469 17.9278 8.15652C19.08 8.4419 19.9575 8.41041 20.5624 8.05811C22.3692 8.60722 23.7602 8.50881 24.7312 7.76289C25.768 7.37713 26.1799 6.87132 25.963 6.24742C25.5988 4.37572 25.0715 2.94488 24.381 1.95885C23.4696 0.270183 22.3394 -0.326163 20.9903 0.16784C15.8325 2.28162 16.5847 1.91948 13.3511 5.75145C7.71182 12.4274 2.57992 15.6925 0.100538 27.5112C-0.886441 34.2186 5.55678 30.2745 12.2567 32.6166C10.3285 31.4396 8.17347 30.674 5.9269 30.3709C14.3978 30.2981 16.7478 35.4743 24.0228 34.2993C23.203 33.2345 22.1543 32.3627 20.9525 31.7466C27.2345 33.5534 27.1887 38.0486 30.6909 40.1959L33.1205 37.6255C31.8629 39.9341 30.8322 41.8392 30.8819 42.9434C33.1643 44.3506 35.1602 45.7106 35.7591 50.2176C35.1462 48.7907 33.7076 46.5687 32.4281 45.6732C35.3492 50.81 34.4916 52.8904 36.7282 55.9725L36.7322 56Z" fill="white"/>
<path fill-rule="evenodd" clip-rule="evenodd" d="M34.1792 53.7543C24.4626 51.6327 16.905 43.8251 15.2574 34.0375C15.14 33.9864 15.0226 33.9352 14.9052 33.882C14.7381 33.8073 14.5689 33.7325 14.4018 33.6577C15.9459 44.1636 24.0746 52.5597 34.5155 54.6164C34.3941 54.335 34.2826 54.0496 34.1792 53.7543ZM36.4516 6.44619C27.4016 7.57984 19.9217 13.6929 16.907 21.9217C16.9687 21.9177 17.0304 21.9138 17.0941 21.9099C18.485 21.8311 19.7565 22.0398 20.9624 22.4491C23.6288 16.0665 29.5686 11.3606 36.7123 10.3766C36.5451 9.09137 36.376 7.73926 36.4516 6.44619ZM20.26 35.6081C22.0389 41.609 26.6097 46.4289 32.4878 48.5998C32.9355 49.6508 33.2877 50.7155 33.624 51.922C33.7434 52.353 33.8588 52.7585 33.9802 53.1462C24.7531 50.999 17.5776 43.5909 15.8683 34.2993C17.3886 34.9389 18.7775 35.4054 20.26 35.6081ZM16.3001 21.9807C16.0076 22.0142 15.7171 22.0555 15.4286 22.1008C18.491 12.9863 26.6952 6.19427 36.6386 5.09015C36.579 5.35191 36.5352 5.61958 36.5013 5.88921C27.0992 7.01892 19.3367 13.4016 16.3001 21.9807Z" fill="#F41E1E"/>
<path d="M73.7351 42.9083C71.9657 42.9083 70.2915 42.7722 68.7126 42.5C67.1338 42.2006 65.7863 41.7922 64.6701 41.275V34.9458C65.8951 35.5175 67.2563 35.9803 68.7535 36.3342C70.2507 36.6881 71.6526 36.865 72.9593 36.865C74.3204 36.865 75.3413 36.7561 76.0218 36.5383C76.7296 36.2933 77.0835 35.7625 77.0835 34.9458C77.0835 34.3742 76.8793 33.925 76.471 33.5983C76.0899 33.2717 75.4774 32.9722 74.6335 32.7C73.8168 32.4278 72.7415 32.0875 71.4076 31.6792C69.6382 31.1075 68.2363 30.4814 67.2018 29.8008C66.1674 29.1203 65.4188 28.29 64.956 27.31C64.5204 26.33 64.3026 25.1322 64.3026 23.7167C64.3026 21.1306 65.2146 19.1706 67.0385 17.8367C68.8896 16.4756 71.6254 15.795 75.246 15.795C76.6888 15.795 78.1724 15.9175 79.6968 16.1625C81.2485 16.4075 82.5007 16.6797 83.4535 16.9792V23.3492C82.174 22.8319 80.949 22.4644 79.7785 22.2467C78.6079 22.0289 77.5054 21.92 76.471 21.92C75.2732 21.92 74.2524 22.0153 73.4085 22.2058C72.5646 22.3964 72.1426 22.8864 72.1426 23.6758C72.1426 24.3564 72.4965 24.86 73.2043 25.1867C73.9393 25.4861 75.2324 25.8808 77.0835 26.3708C79.234 26.9425 80.8674 27.6367 81.9835 28.4533C83.1268 29.27 83.9026 30.2228 84.311 31.3117C84.7193 32.3733 84.9235 33.5847 84.9235 34.9458C84.9235 37.3414 83.9979 39.2742 82.1468 40.7442C80.2957 42.1869 77.4918 42.9083 73.7351 42.9083ZM88.2795 42.5V14.9783H95.9561V24.3292C96.6367 23.8664 97.4806 23.4853 98.4878 23.1858C99.5222 22.8864 100.625 22.7367 101.795 22.7367C104.463 22.7367 106.409 23.3628 107.634 24.615C108.859 25.84 109.472 27.7456 109.472 30.3317V42.5H101.754V30.9033C101.754 30.005 101.564 29.3653 101.183 28.9842C100.829 28.6031 100.176 28.4125 99.2228 28.4125C98.6511 28.4125 98.0523 28.5486 97.4261 28.8208C96.8272 29.0931 96.3372 29.4197 95.9561 29.8008V42.5H88.2795ZM123.688 42.9083C119.823 42.9083 116.964 42.0508 115.113 40.3358C113.289 38.6208 112.378 36.1164 112.378 32.8225C112.378 29.5558 113.303 27.065 115.154 25.35C117.005 23.6078 119.85 22.7367 123.688 22.7367C127.554 22.7367 130.412 23.6078 132.263 25.35C134.142 27.065 135.081 29.5558 135.081 32.8225C135.081 36.1164 134.155 38.6208 132.304 40.3358C130.453 42.0508 127.581 42.9083 123.688 42.9083ZM123.688 37.3142C124.941 37.3142 125.839 36.9603 126.383 36.2525C126.955 35.5447 127.241 34.4014 127.241 32.8225C127.241 31.2708 126.955 30.1411 126.383 29.4333C125.839 28.6983 124.941 28.3308 123.688 28.3308C122.463 28.3308 121.579 28.6983 121.034 29.4333C120.49 30.1411 120.218 31.2708 120.218 32.8225C120.218 34.4014 120.49 35.5447 121.034 36.2525C121.579 36.9603 122.463 37.3142 123.688 37.3142ZM146.757 42.9083C144.171 42.9083 142.293 42.255 141.122 40.9483C139.951 39.6417 139.366 37.8722 139.366 35.64V28.8208H136.834V23.145H139.366V19.1842L147.043 17.3467V23.145H151.494L151.208 28.8208H147.043V35.0683C147.043 35.885 147.247 36.4703 147.655 36.8242C148.064 37.1508 148.69 37.3142 149.534 37.3142C150.323 37.3142 151.126 37.1781 151.943 36.9058V42.01C150.5 42.6089 148.771 42.9083 146.757 42.9083Z" fill="white"/>
<path d="M154.49 42.5V16.2033H174.253V21.92H162.167V26.4525H172.702V32.2508H162.167V42.5H154.49ZM177.562 20.5725V15.0192H185.851V20.5725H177.562ZM178.175 42.5V28.7392H175.357L176.011 23.145H185.851V42.5H178.175ZM198.333 42.9083C195.747 42.9083 193.869 42.255 192.698 40.9483C191.527 39.6417 190.942 37.8722 190.942 35.64V28.8208H188.41V23.145H190.942V19.1842L198.619 17.3467V23.145H203.07L202.784 28.8208H198.619V35.0683C198.619 35.885 198.823 36.4703 199.231 36.8242C199.64 37.1508 200.266 37.3142 201.11 37.3142C201.899 37.3142 202.702 37.1781 203.519 36.9058V42.01C202.076 42.6089 200.347 42.9083 198.333 42.9083Z" fill="#F41E1E"/>
</svg>
