<svg width="36" height="36" viewBox="0 0 36 36" fill="none" xmlns="http://www.w3.org/2000/svg">
<path fill-rule="evenodd" clip-rule="evenodd" d="M23.6135 36C24.5947 23.564 41.9356 20.6907 33.8651 14.0508C32.9517 13.3802 32.2853 12.5034 32.2725 11.2331C32.5207 11.805 32.8635 12.33 33.2869 12.7893C33.4263 12.2706 33.489 11.7366 33.4737 11.204C34.2911 10.8307 34.222 9.77048 34.4049 9.22896C34.6851 8.40782 34.6723 7.85618 34.3678 7.5753C34.7912 4.4021 34.4855 2.63457 33.4481 2.27524C32.3121 0.88475 30.5571 0.134467 28.7547 0.268582C27.2465 0.381187 25.8624 1.10363 24.9171 2.24234C23.7734 3.62018 24.3657 5.9849 24.5346 7.62464C24.2212 7.97385 24.6177 8.84686 24.6983 9.4858C24.8301 10.5309 25.0667 11.1648 25.595 11.309C25.6449 11.9226 25.7473 12.5312 25.8995 13.1284C26.3472 12.6704 26.7386 12.1618 27.0661 11.6114C26.8627 13.0297 26.2218 13.6965 25.8189 13.9698C26.0786 14.1912 26.6158 14.3734 27.0904 14.5872C26.1003 14.5366 25.453 13.9268 24.7853 14.2557C24.2954 14.4974 23.6187 14.9832 23.7773 15.3653C23.8297 16.0144 23.8668 16.9646 23.5854 17.8502C23.5956 17.2784 23.5355 16.3902 23.3551 15.7702C22.626 16.2687 21.4095 16.7988 20.5255 16.9228C20.8773 16.7723 21.5719 16.3497 21.838 16.0764C20.4641 14.8858 18.5018 14.5568 16.8197 15.0338C18.2038 14.4468 19.8105 14.5037 21.3302 15.1781C19.5751 13.9369 17.252 13.8812 14.361 15.0085C14.361 15.0085 15.0979 15.7841 15.4624 16.3472C11.5506 13.7775 10.3469 15.3679 7.11818 15.297C7.18981 15.0566 7.2461 14.8162 7.29215 14.5733C7.37018 14.0495 7.39065 13.4472 7.4674 12.7577C7.55311 10.5587 7.43414 8.25093 9.6267 5.81156C8.95895 6.80098 8.5317 7.92956 8.37819 9.11002C9.0178 7.39816 10.0667 6.11016 11.525 5.24347C12.2657 5.42693 12.8298 5.40669 13.2187 5.18021C14.3802 5.53321 15.2744 5.46995 15.8986 4.99043C16.5651 4.74244 16.8299 4.41728 16.6905 4.0162C16.4564 2.81296 16.1174 1.89314 15.6735 1.25926C15.0876 0.173689 14.361 -0.209676 13.4937 0.107897C10.178 1.46676 10.6616 1.23395 8.58287 3.69736C4.9576 7.98903 1.65852 10.088 0.0646313 17.6858C-0.569855 21.9977 3.57222 19.4622 7.8793 20.9678C6.63975 20.2112 5.25437 19.719 3.81015 19.5242C9.25573 19.4773 10.7665 22.8049 15.4433 22.0496C14.9162 21.3651 14.2421 20.8046 13.4694 20.4085C17.5079 21.57 17.4785 24.4598 19.7299 25.8402L21.2918 24.1878C20.4833 25.6719 19.8207 26.8967 19.8527 27.6065C21.3199 28.5111 22.603 29.3854 22.988 32.2828C22.594 31.3655 21.6691 29.937 20.8466 29.3613C22.7245 32.6636 22.1732 34.0009 23.611 35.9823L23.6135 36Z" fill="#F41E1E"/>
<path fill-rule="evenodd" clip-rule="evenodd" d="M21.9723 34.5564C15.726 33.1924 10.8675 28.1733 9.80835 21.8813C9.73287 21.8484 9.6574 21.8155 9.58193 21.7813C9.47447 21.7332 9.36574 21.6852 9.25829 21.6371C10.251 28.3909 15.4765 33.7884 22.1885 35.1105C22.1105 34.9296 22.0388 34.7462 21.9723 34.5564ZM23.4332 4.14398C17.6153 4.87276 12.8068 8.80257 10.8688 14.0925C10.9085 14.09 10.9481 14.0874 10.9891 14.0849C11.8832 14.0343 12.7006 14.1684 13.4758 14.4316C15.19 10.3284 19.0084 7.30327 23.6007 6.67065C23.4933 5.84445 23.3846 4.97524 23.4332 4.14398ZM13.0243 22.8909C14.1679 26.7486 17.1062 29.8472 20.885 31.2427C21.1728 31.9184 21.3992 32.6028 21.6154 33.3784C21.6922 33.6555 21.7664 33.9162 21.8444 34.1654C15.9127 32.785 11.2999 28.0227 10.2011 22.0495C11.1784 22.4607 12.0713 22.7606 13.0243 22.8909ZM10.4786 14.1305C10.2906 14.152 10.1038 14.1785 9.91836 14.2076C11.8871 8.34835 17.1612 3.98203 23.5534 3.27224C23.515 3.44051 23.4869 3.61258 23.4652 3.78592C17.4209 4.51216 12.4307 8.61531 10.4786 14.1305Z" fill="#F41E1E"/>
</svg>
